<svg width="512" height="512" viewBox="0 0 512 512" fill="none" xmlns="http://www.w3.org/2000/svg">
  <rect width="512" height="512" rx="128" fill="#0f172a"/>
  <path d="M256 128C185.3 128 128 185.3 128 256C128 326.7 185.3 384 256 384C326.7 384 384 326.7 384 256C384 185.3 326.7 128 256 128ZM256 341.3C208.5 341.3 170.7 303.5 170.7 256C170.7 208.5 208.5 170.7 256 170.7C303.5 170.7 341.3 208.5 341.3 256C341.3 303.5 303.5 341.3 256 341.3Z" fill="white"/>
  <path d="M256 192C229.5 192 208 213.5 208 240C208 266.5 229.5 288 256 288C282.5 288 304 266.5 304 240C304 213.5 282.5 192 256 192Z" fill="white"/>
  <path d="M192 298.7C192 275.2 211.2 256 234.7 256H277.3C300.8 256 320 275.2 320 298.7" stroke="white" stroke-width="10" stroke-linecap="round"/>
</svg>
